<?xml version="1.0" standalone="no"?>
<!DOCTYPE svg PUBLIC "-//W3C//DTD SVG 20010904//EN"
 "http://www.w3.org/TR/2001/REC-SVG-20010904/DTD/svg10.dtd">
<svg version="1.0" xmlns="http://www.w3.org/2000/svg"
 width="1280.000000pt" height="640.000000pt" viewBox="0 0 1280.000000 640.000000"
 preserveAspectRatio="xMidYMid meet">
<metadata>
Created by potrace 1.15, written by Peter Selinger 2001-2017
</metadata>
<g transform="translate(0.000000,640.000000) scale(0.100000,-0.100000)"
fill="#000000" stroke="none">
<path d="M6699 6116 c-21 -14 -48 -49 -67 -85 -18 -33 -46 -69 -61 -80 -16
-12 -38 -41 -50 -66 -11 -24 -49 -75 -84 -112 -81 -87 -98 -114 -127 -193 -12
-36 -36 -91 -52 -123 -23 -47 -27 -62 -17 -73 9 -12 7 -22 -14 -51 -19 -27
-23 -41 -17 -53 8 -14 2 -23 -30 -45 -50 -34 -56 -52 -25 -67 l25 -11 -40 -43
c-41 -44 -50 -69 -28 -76 19 -7 -9 -44 -97 -129 -43 -41 -114 -110 -158 -153
l-80 -79 -116 7 c-64 3 -307 13 -541 21 -353 13 -476 22 -725 51 -409 47 -607
78 -825 125 -427 93 -418 92 -760 64 -230 -20 -516 -16 -894 10 -240 17 -208
12 -472 75 -163 40 -264 73 -540 176 -502 188 -492 185 -543 182 -66 -4 -66
-27 -2 -89 102 -98 227 -158 566 -269 88 -29 173 -59 189 -67 26 -14 27 -16
12 -25 -21 -12 -54 -8 -336 38 -177 29 -247 46 -396 95 -99 32 -195 59 -213
59 -120 0 -81 -99 67 -174 157 -78 489 -177 667 -197 160 -18 223 -45 161 -69
-40 -15 -216 -30 -355 -30 -325 -1 -705 -47 -718 -87 -16 -48 360 -101 632
-89 82 3 216 9 296 12 155 7 199 2 199 -20 0 -17 -71 -45 -235 -92 -66 -19
-154 -45 -195 -58 -41 -13 -196 -54 -345 -91 -148 -37 -280 -73 -292 -81 -32
-20 -29 -40 9 -61 28 -15 64 -19 216 -21 225 -4 285 6 495 87 242 94 337 118
337 86 0 -19 -300 -168 -440 -219 -58 -20 -193 -64 -300 -97 -246 -75 -270
-85 -270 -115 0 -19 9 -26 53 -39 143 -43 339 -43 451 -1 34 13 138 58 232 99
236 104 321 130 331 100 11 -32 -151 -144 -473 -327 -307 -176 -341 -216 -180
-216 203 0 288 29 453 155 110 84 274 185 301 185 61 0 5 -62 -212 -235 -80
-64 -153 -127 -162 -140 -39 -60 -22 -145 30 -145 13 0 65 27 114 59 129 85
148 94 172 81 17 -9 20 -21 20 -78 0 -85 15 -138 43 -157 20 -13 29 -12 86 5
92 29 133 14 172 -62 29 -58 66 -81 114 -73 22 4 54 9 71 12 55 9 97 -20 152
-105 51 -79 99 -118 130 -107 9 3 28 21 42 40 14 19 37 39 52 46 36 15 81 -11
125 -71 54 -76 87 -109 115 -116 24 -5 29 -1 48 35 11 23 27 41 36 41 23 0 57
-39 94 -108 21 -40 45 -70 68 -84 l35 -21 28 31 c16 18 34 32 41 32 21 -1 54
-32 83 -80 35 -58 63 -88 97 -106 25 -13 29 -12 61 16 55 48 93 42 162 -25 64
-62 98 -71 117 -30 14 31 48 41 80 24 12 -7 56 -41 95 -75 109 -94 182 -107
196 -34 9 43 43 57 102 40 50 -14 84 -44 127 -108 31 -47 80 -76 114 -68 19 5
23 14 26 48 6 78 58 74 155 -14 59 -53 115 -85 158 -90 25 -3 32 3 53 39 32
58 59 57 118 -2 79 -77 150 -74 195 9 32 58 43 66 91 66 33 0 41 -5 63 -40 44
-69 99 -63 136 15 41 87 84 91 164 16 29 -27 65 -53 80 -57 32 -8 75 10 75 30
0 9 8 31 17 51 22 47 55 47 85 1 26 -40 66 -66 101 -66 23 0 97 46 112 70 4 6
25 25 47 41 42 30 100 39 113 18 13 -20 -16 -65 -63 -96 -56 -37 -284 -152
-432 -218 -121 -54 -203 -100 -277 -156 -49 -37 -53 -43 -53 -82 0 -78 87
-208 128 -192 9 3 35 9 58 12 40 5 43 4 59 -28 17 -31 16 -37 -5 -132 -20 -87
-21 -106 -11 -150 23 -100 59 -110 147 -42 70 54 98 64 123 41 20 -18 41 -105
41 -169 0 -97 57 -207 107 -207 41 0 60 17 102 89 40 68 55 81 91 81 21 0 70
-79 90 -145 37 -119 127 -225 192 -225 37 0 74 39 83 88 10 53 23 72 49 72 18
0 32 -15 62 -67 92 -159 241 -257 297 -195 17 19 47 120 47 160 0 44 17 62 61
62 36 0 48 -7 119 -75 79 -75 111 -92 155 -81 33 8 48 39 54 116 5 59 9 66 34
78 42 20 87 7 145 -42 54 -47 106 -66 125 -47 8 8 4 33 -16 92 -29 85 -26 112
12 124 32 10 108 -13 202 -61 150 -76 172 -57 119 105 -36 110 -36 115 -9 142
19 19 30 21 147 17 125 -3 127 -3 130 20 2 14 -14 46 -44 90 -130 183 -140
204 -108 216 32 12 90 5 119 -14 46 -32 94 -50 130 -50 27 0 41 8 69 42 46 54
46 81 -3 154 -77 115 -340 394 -449 475 -57 42 -102 87 -102 102 0 22 59 1
125 -44 41 -27 90 -53 109 -56 48 -8 94 13 113 51 42 84 74 87 138 11 52 -60
92 -78 148 -65 49 11 55 16 67 60 10 37 14 40 44 40 28 0 40 -8 70 -44 30 -37
44 -46 82 -52 59 -8 90 6 99 45 13 60 72 68 118 16 39 -44 118 -70 183 -60 25
3 49 12 54 18 6 7 19 24 31 40 16 21 29 27 57 27 30 0 42 -7 72 -41 27 -32 44
-42 76 -46 61 -8 126 24 156 76 20 36 57 61 90 61 5 0 28 -21 53 -48 41 -44
47 -47 95 -47 56 0 80 18 80 60 0 56 66 62 114 9 64 -70 219 -73 256 -5 5 11
10 33 10 50 0 44 23 61 83 61 38 0 62 -6 87 -24 50 -33 75 -39 115 -26 44 14
59 39 45 75 -13 33 -13 31 6 49 26 26 94 20 157 -14 31 -16 67 -30 79 -30 39
0 101 42 111 75 21 67 76 89 150 61 62 -23 110 -21 143 8 28 23 28 24 15 79
-8 30 -11 62 -8 71 11 27 51 18 110 -24 59 -43 91 -49 158 -30 20 6 44 18 53
29 15 17 16 22 1 66 -15 44 -15 48 1 66 25 28 68 23 134 -13 93 -51 116 -26
90 99 -18 86 -14 103 22 103 29 0 69 -25 108 -65 34 -36 105 -75 137 -75 8 0
28 13 44 29 25 26 29 37 29 86 0 60 -18 102 -84 205 -86 131 -6 116 179 -34
153 -125 185 -137 230 -91 35 35 34 90 -4 141 -39 53 -81 91 -177 157 -108 75
-184 147 -184 175 0 65 131 12 469 -190 188 -113 237 -132 260 -105 15 19 6
38 -57 120 -59 75 -149 143 -357 267 -180 108 -255 162 -255 186 0 31 63 11
428 -136 300 -121 379 -144 428 -121 31 14 31 36 -2 66 -14 13 -161 93 -327
178 -212 108 -342 168 -438 201 -145 50 -203 79 -196 99 10 28 173 -6 547
-115 131 -38 155 -42 255 -42 80 0 135 7 200 23 93 22 148 52 130 69 -15 15
-445 119 -586 142 -457 77 -546 103 -477 142 17 10 114 14 393 18 l370 5 67
27 c37 15 92 43 123 63 44 28 56 40 53 58 -3 21 -6 22 -123 20 -552 -9 -894
-7 -950 6 -74 17 -110 38 -94 57 15 18 64 23 269 29 308 9 427 26 580 82 152
57 220 100 220 140 0 47 -66 48 -267 4 -120 -27 -190 -37 -383 -57 -202 -21
-513 -25 -531 -7 -7 7 -10 15 -7 18 8 9 151 40 313 69 441 79 615 139 615 210
0 40 -30 56 -101 56 -78 0 -328 -40 -499 -80 -208 -48 -479 -98 -595 -109
-278 -27 -342 -31 -915 -62 -120 -7 -337 -9 -523 -6 -349 6 -383 3 -667 -68
-130 -32 -327 -60 -529 -76 -250 -19 -1217 12 -1273 42 -46 24 -272 246 -319
312 -40 58 -46 72 -37 87 9 14 8 27 -6 59 -10 22 -16 48 -12 57 4 9 -2 31 -13
49 -14 24 -16 36 -8 44 8 8 4 25 -13 61 -20 44 -22 53 -10 60 13 8 11 16 -8
54 -20 37 -22 47 -11 64 11 17 8 31 -19 92 -27 62 -32 85 -32 152 0 84 24 171
61 221 26 35 18 60 -25 81 -47 22 -86 20 -127 -8z"/>
</g>
</svg>
