<?xml version="1.0" standalone="no"?>
<!DOCTYPE svg PUBLIC "-//W3C//DTD SVG 20010904//EN"
 "http://www.w3.org/TR/2001/REC-SVG-20010904/DTD/svg10.dtd">
<svg version="1.0" xmlns="http://www.w3.org/2000/svg"
 width="1280.000000pt" height="798.000000pt" viewBox="0 0 1280.000000 798.000000"
 preserveAspectRatio="xMidYMid meet">
<metadata>
Created by potrace 1.15, written by Peter Selinger 2001-2017
</metadata>
<g transform="translate(0.000000,798.000000) scale(0.100000,-0.100000)"
fill="#000000" stroke="none">
<path d="M10503 7968 c-6 -7 -13 -53 -16 -103 -8 -120 -62 -316 -86 -315 -3 0
-37 32 -76 71 -39 40 -129 111 -204 161 -74 50 -153 111 -176 135 -47 49 -61
52 -99 22 -55 -43 -73 -109 -116 -417 -16 -116 -31 -216 -34 -221 -3 -5 -32
-21 -63 -36 -46 -22 -89 -60 -208 -184 -261 -272 -388 -395 -457 -444 -36 -26
-126 -75 -200 -108 -348 -157 -556 -298 -623 -422 -19 -35 -22 -37 -72 -37
-66 0 -156 -33 -184 -68 l-21 -27 -201 -3 c-152 -3 -259 2 -432 18 -296 28
-605 36 -767 21 -69 -6 -258 -39 -419 -71 -162 -33 -341 -64 -399 -70 -58 -5
-163 -15 -235 -22 -297 -29 -742 -3 -1095 62 -241 45 -361 47 -893 20 -229
-12 -270 -7 -289 36 -14 30 -39 30 -75 0 l-28 -24 -28 24 c-46 40 -127 26
-127 -22 0 -26 -28 -26 -73 0 -43 26 -77 26 -77 2 0 -7 -6 -21 -14 -31 -13
-18 -14 -18 -48 3 -47 29 -59 28 -52 -6 8 -39 -7 -48 -118 -68 -107 -19 -128
-14 -128 32 0 51 -69 14 -150 -79 -45 -51 -60 -53 -60 -5 0 28 -2 30 -27 23
-16 -4 -28 -7 -29 -8 -13 -29 -50 -67 -66 -67 -13 0 -18 -5 -15 -14 15 -38
-71 -88 -113 -66 -11 6 -20 17 -20 25 0 33 -39 6 -66 -46 -12 -24 -18 -28 -34
-19 -33 18 -70 13 -70 -10 0 -23 -21 -35 -78 -45 -38 -6 -56 -19 -130 -94 -59
-59 -136 -120 -242 -192 -300 -202 -397 -285 -478 -409 -23 -36 -111 -135
-195 -220 -84 -85 -160 -171 -169 -190 -9 -19 -24 -55 -34 -79 -27 -66 -68
-116 -105 -131 -19 -7 -35 -15 -37 -16 -7 -5 29 -63 44 -72 15 -8 15 -13 0
-56 -9 -26 -16 -66 -16 -90 0 -50 -30 -101 -74 -125 -16 -9 -28 -20 -27 -24 0
-4 1 -13 1 -21 0 -8 7 -21 14 -29 13 -13 11 -25 -15 -93 -47 -126 -99 -348
-115 -494 -12 -106 -21 -146 -42 -187 l-27 -53 23 -15 c58 -41 96 -175 94
-337 -1 -95 2 -119 15 -130 14 -11 17 -11 21 2 3 8 19 28 35 43 l30 28 22 -21
c31 -29 46 -88 53 -202 6 -115 19 -126 53 -43 12 30 26 55 31 55 4 0 8 -18 8
-39 0 -22 5 -43 10 -46 6 -4 40 7 75 24 l64 30 -5 -43 c-6 -43 9 -91 25 -81 5
2 20 29 35 59 35 72 107 150 170 187 57 32 76 36 76 14 0 -8 9 -24 20 -35 16
-16 25 -18 39 -10 16 8 20 5 25 -25 4 -19 13 -35 20 -35 23 0 101 77 128 126
28 52 68 182 68 222 0 22 1 22 22 8 22 -16 69 -22 80 -10 4 3 0 17 -8 32 -18
34 -18 57 0 90 8 15 19 63 25 107 22 155 30 183 106 369 109 268 117 303 119
521 1 149 -3 205 -23 325 -45 268 -28 484 50 631 30 56 79 109 100 109 11 0
-22 -69 -63 -127 l-29 -43 17 -48 c16 -44 16 -50 1 -82 -18 -39 -43 -169 -52
-275 -12 -133 47 -448 86 -460 10 -3 30 -20 45 -38 l27 -32 -32 -12 c-29 -12
-31 -17 -26 -46 4 -22 -2 -53 -21 -102 -21 -53 -27 -87 -27 -140 1 -101 16
-145 63 -188 33 -29 40 -42 40 -72 0 -28 16 -62 64 -138 133 -213 228 -438
276 -653 30 -130 32 -335 7 -443 -22 -91 -72 -200 -119 -262 -55 -71 -62 -89
-62 -159 0 -120 46 -231 229 -550 145 -254 215 -423 215 -520 0 -47 67 -186
115 -239 45 -49 84 -74 151 -96 49 -16 52 -19 57 -57 6 -44 27 -72 72 -96 42
-24 221 -23 291 1 28 10 113 26 190 36 144 19 214 41 248 79 22 25 16 64 -15
90 -19 17 -19 17 12 43 l33 26 -37 51 c-73 99 -97 112 -287 167 -123 36 -139
44 -192 104 -85 94 -166 286 -208 492 -20 95 -20 102 -4 147 25 70 28 191 10
336 -23 177 -22 258 4 337 46 139 132 265 350 519 79 91 165 194 192 230 27
36 91 103 142 150 51 47 119 114 150 150 121 136 232 331 281 495 15 50 29 96
31 103 2 8 24 12 62 12 l59 0 6 -57 c9 -84 35 -150 74 -189 37 -37 70 -47 55
-17 -20 38 -23 92 -8 127 14 34 46 50 46 24 0 -29 51 -120 91 -162 50 -56 63
-58 38 -9 -22 42 -24 69 -8 109 l10 28 29 -51 c28 -49 74 -93 113 -106 15 -6
16 -2 10 21 -15 54 -7 84 31 119 43 39 52 41 60 9 9 -35 53 -84 96 -106 l37
-19 -4 42 c-4 30 -1 46 10 55 12 10 18 6 38 -23 14 -20 42 -43 69 -54 52 -23
62 -20 32 12 -24 25 -45 75 -37 87 3 5 22 -2 41 -15 41 -28 135 -65 165 -65
16 0 19 4 13 18 -16 36 -16 88 0 101 13 11 17 7 30 -23 13 -31 86 -96 108 -96
4 0 8 21 8 48 0 58 21 92 57 92 14 0 85 -27 157 -61 72 -33 154 -71 181 -84
64 -30 119 -46 279 -85 168 -41 281 -82 356 -131 33 -21 65 -39 71 -39 5 0 27
11 48 25 167 111 487 141 916 85 393 -51 575 -113 625 -210 50 -98 61 -189 70
-590 6 -266 13 -403 25 -470 11 -64 19 -201 25 -420 10 -408 24 -473 133 -632
32 -47 48 -82 52 -115 4 -26 15 -60 26 -75 44 -63 89 -233 89 -340 0 -27 5
-54 10 -61 6 -7 21 -28 33 -47 27 -42 89 -74 183 -96 38 -9 98 -30 134 -48
l64 -31 176 2 c166 1 175 2 174 21 0 18 6 19 91 14 101 -5 133 5 191 60 29 27
32 35 33 101 l1 72 -47 54 c-62 71 -93 83 -238 89 l-120 5 -43 46 c-94 99
-160 217 -187 335 -19 80 -19 298 0 441 8 61 22 193 30 295 29 352 67 605 121
808 30 114 49 155 108 241 54 76 86 166 86 238 0 49 4 58 51 115 28 35 85 117
126 183 208 327 270 397 434 485 51 28 120 79 189 142 92 83 110 103 110 128
0 79 102 274 200 382 94 105 165 152 261 172 24 5 27 11 32 63 9 88 70 198
183 333 140 166 194 259 194 335 0 13 21 52 48 87 27 35 83 129 125 209 102
190 140 240 192 252 81 18 260 1 409 -38 222 -58 289 -68 443 -69 161 -1 178
5 221 82 13 23 30 42 38 42 8 0 33 -13 56 -30 22 -16 49 -30 58 -30 51 0 68
103 28 167 -29 49 -67 62 -154 56 -84 -7 -196 16 -264 52 l-45 24 170 1 c186
0 330 17 390 46 38 18 103 74 121 104 5 9 31 29 57 44 89 51 143 177 100 234
-23 31 -33 34 -245 72 -110 20 -188 40 -230 59 -84 38 -364 134 -458 156 -60
14 -82 25 -111 54 -45 45 -60 90 -66 206 -3 58 -10 96 -20 107 -30 34 -378
190 -653 293 -117 44 -163 70 -208 119 -48 52 -114 181 -163 316 -17 50 -42
101 -55 115 -25 27 -56 32 -71 13z"/>
</g>
</svg>
