<?xml version="1.0" standalone="no"?>
<!DOCTYPE svg PUBLIC "-//W3C//DTD SVG 20010904//EN"
 "http://www.w3.org/TR/2001/REC-SVG-20010904/DTD/svg10.dtd">
<svg version="1.0" xmlns="http://www.w3.org/2000/svg"
 width="1178.000000pt" height="1280.000000pt" viewBox="0 0 1178.000000 1280.000000"
 preserveAspectRatio="xMidYMid meet">
<metadata>
Created by potrace 1.15, written by Peter Selinger 2001-2017
</metadata>
<g transform="translate(0.000000,1280.000000) scale(0.100000,-0.100000)"
fill="#000000" stroke="none">
<path d="M7575 12770 c-113 -66 -276 -281 -348 -461 -44 -107 -49 -132 -74
-318 -15 -111 -30 -198 -35 -193 -12 12 -45 181 -64 327 -14 113 -15 156 -5
328 12 194 11 198 -9 227 -12 17 -25 30 -30 30 -4 0 -25 -29 -45 -65 -44 -80
-70 -214 -84 -440 -8 -143 -8 -157 21 -314 16 -91 47 -220 69 -289 22 -68 38
-130 35 -138 -14 -37 -90 -3 -211 96 -63 51 -83 76 -129 158 -76 135 -121 257
-146 392 -27 143 -50 230 -63 230 -5 0 -27 -5 -47 -11 -36 -11 -38 -14 -44
-63 -17 -141 17 -337 99 -565 47 -131 63 -165 112 -229 94 -123 227 -265 320
-343 49 -40 156 -139 238 -219 181 -176 284 -262 430 -360 150 -100 310 -228
500 -399 246 -221 283 -258 362 -366 60 -82 79 -116 105 -197 18 -53 29 -100
26 -103 -10 -11 -140 17 -196 42 -40 18 -82 52 -161 131 -93 95 -118 114 -210
161 -57 29 -141 66 -188 82 -113 38 -197 86 -258 148 -53 55 -83 63 -123 35
-26 -18 -26 -2 9 -309 15 -132 28 -201 61 -310 41 -136 45 -144 130 -261 169
-233 245 -283 431 -285 77 0 119 -6 171 -23 l70 -22 18 -65 18 -66 -69 -201
c-39 -110 -98 -303 -132 -429 -79 -286 -106 -340 -196 -382 -166 -79 -388
-108 -683 -90 -91 6 -223 19 -294 30 -74 11 -181 19 -250 19 -106 0 -140 -5
-281 -39 -88 -22 -245 -52 -348 -67 l-189 -28 -351 27 c-497 39 -1061 53
-1472 38 -494 -18 -701 -29 -1080 -56 -294 -21 -384 -24 -564 -17 -117 4 -295
4 -394 0 l-181 -8 -144 -55 c-119 -47 -177 -77 -334 -176 -105 -67 -207 -127
-227 -134 -20 -7 -121 -50 -226 -94 l-190 -82 -173 -172 c-126 -126 -207 -217
-302 -342 l-129 -170 -35 -265 c-19 -146 -44 -357 -56 -470 -11 -113 -23 -226
-26 -252 -5 -37 -3 -48 8 -48 8 0 18 12 24 26 6 18 48 49 144 107 l135 82 85
147 85 147 3 -45 c2 -29 7 -44 15 -41 6 2 59 82 117 178 l105 174 11 -180 c14
-223 65 -477 160 -799 36 -120 80 -276 98 -345 l33 -126 -12 -105 c-17 -149
-73 -326 -140 -446 -43 -77 -73 -115 -133 -172 -80 -75 -146 -112 -407 -229
-125 -56 -151 -76 -211 -159 l-48 -68 23 -420 c12 -232 35 -646 50 -922 l27
-500 -28 -285 c-15 -156 -32 -352 -38 -435 l-11 -152 26 -63 c39 -98 56 -99
111 -7 20 33 40 56 44 51 9 -10 60 -249 61 -283 0 -14 13 -65 28 -115 l28 -90
122 -42 c106 -37 137 -43 240 -49 105 -6 124 -5 184 15 l67 23 -2 40 c-3 38
-1 42 28 50 24 6 35 17 47 49 l16 41 -101 104 c-56 57 -103 102 -105 100 -3
-2 -37 9 -76 26 -127 54 -194 133 -241 282 -24 79 -26 100 -51 771 -25 681
-25 694 -9 970 16 270 18 281 42 315 53 73 84 100 119 100 24 0 131 50 359
166 179 91 327 165 329 163 2 -2 -39 -90 -90 -196 -59 -122 -106 -205 -129
-229 -46 -47 -50 -62 -36 -129 10 -50 25 -72 164 -238 438 -525 554 -675 748
-962 223 -331 312 -501 343 -655 17 -86 52 -163 79 -173 28 -11 56 40 56 102
l1 56 27 -32 c17 -19 42 -75 62 -139 25 -76 48 -125 78 -166 38 -52 53 -64
128 -98 76 -35 100 -41 225 -54 l141 -15 71 26 c98 35 135 85 87 115 -23 15
-26 28 -6 28 22 0 55 33 61 61 6 23 -2 33 -72 89 -67 54 -162 108 -199 114 -6
1 -22 9 -35 18 -14 8 -60 34 -104 56 -123 61 -212 166 -229 268 -6 33 -35 74
-155 220 -81 98 -264 332 -406 519 -202 264 -272 364 -316 450 -93 178 -99
214 -69 386 l12 66 91 64 c153 105 441 322 642 482 174 138 202 165 341 327
143 167 156 187 249 361 54 101 99 185 100 187 1 1 28 -7 61 -18 88 -31 88
-31 789 -150 82 -13 182 -19 390 -23 241 -4 317 -2 545 19 146 13 425 37 620
54 195 17 409 37 475 44 66 8 121 13 123 12 1 -2 -27 -144 -63 -317 -86 -411
-191 -1089 -210 -1354 -39 -542 -132 -1125 -211 -1320 -35 -88 -36 -92 -29
-180 12 -161 21 -171 60 -57 14 42 32 88 40 102 13 23 14 20 15 -54 0 -43 7
-104 15 -136 14 -56 14 -59 -15 -146 -37 -108 -48 -211 -30 -293 20 -93 37
-104 225 -147 151 -34 167 -36 278 -30 98 5 124 10 148 27 34 24 36 37 9 82
l-21 35 61 4 c98 7 97 15 -11 126 -52 53 -108 114 -123 135 -15 20 -33 37 -40
37 -7 0 -33 24 -58 53 -53 62 -72 127 -69 242 1 38 6 201 10 360 l9 290 66
328 66 328 106 222 c58 122 153 337 211 477 58 140 106 256 108 258 1 2 71
-119 155 -268 l152 -270 99 -319 c63 -205 128 -389 180 -513 l81 -193 48 -350
c33 -242 50 -402 54 -520 8 -201 18 -253 54 -266 37 -14 50 -5 57 38 10 59 16
74 25 68 5 -3 35 -49 65 -101 l56 -95 -12 -90 c-11 -77 -11 -98 3 -157 9 -37
21 -79 27 -93 29 -78 246 -129 461 -110 63 6 121 11 127 11 7 0 19 13 27 29
14 27 14 31 -6 57 l-22 27 28 -5 c20 -4 35 1 54 18 l27 23 -115 115 c-63 63
-126 121 -140 128 -57 29 -134 90 -152 118 -10 17 -38 111 -63 208 -47 190
-73 265 -165 492 -53 128 -70 188 -144 515 -77 334 -85 383 -91 510 -5 90 -21
220 -46 365 -53 305 -134 1253 -124 1450 4 76 11 129 18 136 7 6 83 36 169 67
132 47 176 68 285 137 70 45 185 125 254 176 l126 94 129 197 c264 405 378
564 578 808 l204 250 152 276 151 277 45 168 c40 151 47 193 64 394 11 124 24
263 30 310 5 47 11 101 13 120 l2 35 75 16 c79 17 169 64 206 107 13 17 27 23
37 19 46 -18 88 90 90 231 l2 97 -44 75 c-41 71 -44 80 -49 165 -6 123 11 219
53 308 19 39 39 98 45 130 6 31 15 57 20 57 5 0 22 -11 38 -25 41 -35 52 -32
52 14 0 31 -6 43 -26 58 -24 18 -27 26 -28 91 -1 54 2 72 12 72 17 0 72 54 72
70 0 8 -14 10 -49 5 -49 -7 -91 7 -91 30 0 6 49 17 112 24 l112 13 86 77 c114
100 187 211 266 400 33 80 81 178 105 216 39 59 69 146 69 195 0 4 -18 15 -39
25 -40 17 -41 17 -107 -9 -36 -15 -128 -62 -204 -106 -108 -62 -157 -84 -227
-101 -110 -28 -252 -93 -320 -147 -29 -23 -55 -42 -59 -42 -17 0 187 364 304
543 107 164 226 284 457 462 50 38 131 103 180 145 50 42 146 122 215 177 201
163 387 366 513 560 65 101 66 104 121 315 99 388 114 740 36 846 -13 18 -24
32 -25 32 -24 0 -69 -30 -88 -59 -26 -39 -32 -83 -67 -456 -14 -154 -91 -404
-144 -469 -23 -28 -49 -47 -67 -51 -17 -4 -32 -5 -33 -3 -2 1 -15 50 -29 108
-40 164 -56 322 -64 622 l-8 278 -32 32 -32 32 -21 -46 c-24 -54 -43 -154 -64
-333 -19 -154 -10 -371 24 -598 38 -260 27 -332 -66 -441 -99 -117 -269 -253
-278 -224 -8 24 -66 371 -87 518 -11 80 -34 202 -50 272 -44 195 -209 619
-281 721 -13 19 -28 27 -48 27 -25 0 -31 -5 -41 -40 -14 -48 0 -108 68 -295
59 -161 97 -339 138 -640 61 -449 67 -516 55 -613 -15 -121 -41 -170 -151
-287 -222 -236 -317 -351 -415 -500 -32 -49 -60 -92 -61 -94 -2 -3 -22 13 -44
35 -79 77 -209 355 -229 492 -14 86 -10 128 27 294 l26 117 -19 58 c-18 55
-21 58 -59 65 -38 7 -42 5 -85 -41 -39 -41 -48 -59 -67 -137 -33 -129 -46
-319 -32 -450 10 -100 14 -112 66 -207 56 -105 193 -390 193 -404 1 -4 -14
-63 -32 -131 l-33 -123 -55 2 c-35 2 -66 -3 -85 -13 -28 -15 -39 -15 -105 -2
-41 8 -123 14 -181 14 -94 0 -110 3 -134 22 -21 16 -39 21 -75 19 l-47 -2 -77
92 c-43 50 -96 123 -118 162 l-41 71 12 79 c9 65 21 99 65 181 129 242 165
387 146 591 -5 61 -16 134 -24 162 -14 52 -59 118 -80 118 -6 0 -20 -18 -33
-40 -19 -35 -21 -49 -16 -117 18 -229 -98 -555 -266 -748 l-39 -44 -83 78
c-139 130 -409 323 -609 434 -42 23 -109 78 -189 156 -103 101 -129 132 -153
186 -29 63 -29 67 -19 139 10 63 17 80 50 120 34 40 50 50 132 78 52 18 131
41 175 52 196 49 475 219 567 345 49 66 76 132 60 146 -4 4 -24 13 -44 19 -31
10 -45 8 -104 -14 -38 -15 -85 -40 -105 -56 -142 -120 -180 -145 -269 -184
-101 -44 -210 -69 -349 -80 -77 -7 -85 -6 -107 15 -32 30 -41 117 -25 241 24
201 128 434 286 647 88 118 94 129 94 173 0 26 -3 50 -7 52 -5 3 -28 7 -53 10
-38 5 -53 2 -95 -23z"/>
</g>
</svg>
