<?xml version="1.0" standalone="no"?>
<!DOCTYPE svg PUBLIC "-//W3C//DTD SVG 20010904//EN"
 "http://www.w3.org/TR/2001/REC-SVG-20010904/DTD/svg10.dtd">
<svg version="1.0" xmlns="http://www.w3.org/2000/svg"
 width="1038.000000pt" height="1280.000000pt" viewBox="0 0 1038.000000 1280.000000"
 preserveAspectRatio="xMidYMid meet">
<metadata>
Created by potrace 1.15, written by Peter Selinger 2001-2017
</metadata>
<g transform="translate(0.000000,1280.000000) scale(0.100000,-0.100000)"
fill="#000000" stroke="none">
<path d="M3836 12745 c-234 -146 -412 -340 -507 -551 -17 -38 -54 -141 -84
-229 -29 -88 -62 -182 -74 -208 -52 -119 -133 -191 -263 -232 -79 -25 -264
-49 -333 -43 l-39 3 -68 130 c-37 72 -102 218 -144 325 -123 312 -191 435
-301 542 -73 73 -117 103 -202 138 -74 30 -192 54 -222 45 -32 -10 -22 -34 45
-106 86 -93 149 -220 225 -457 75 -231 152 -494 147 -499 -8 -9 -105 48 -181
105 -78 58 -217 192 -290 282 -21 24 -94 119 -163 210 -70 91 -172 210 -227
266 -83 84 -114 108 -185 143 -94 46 -137 55 -153 30 -8 -13 4 -35 56 -108 80
-111 164 -250 282 -466 165 -302 218 -382 332 -498 149 -151 363 -278 578
-342 50 -15 97 -29 105 -32 8 -3 -11 -14 -46 -27 -130 -48 -184 -100 -184
-178 0 -44 -2 -49 -17 -42 -147 64 -386 123 -582 145 -113 12 -396 7 -488 -9
l-42 -7 53 -70 c68 -90 192 -224 283 -305 39 -36 71 -67 72 -70 1 -7 -293
-163 -374 -198 -38 -17 -155 -56 -260 -87 -286 -86 -429 -153 -526 -246 -34
-33 -50 -57 -55 -85 -15 -81 37 -184 123 -246 64 -46 107 -62 168 -63 44 0 60
6 120 45 65 43 73 45 140 45 73 0 128 -22 199 -80 l29 -23 -74 -21 c-135 -39
-192 -65 -236 -107 -33 -31 -43 -48 -43 -73 0 -71 29 -87 179 -97 141 -10 211
5 340 73 98 51 109 55 157 50 28 -3 172 -46 320 -96 148 -49 329 -104 402
-122 l133 -32 -7 -41 c-10 -61 -47 -158 -85 -223 -22 -37 -101 -124 -215 -238
-99 -99 -211 -218 -248 -265 -91 -113 -266 -380 -250 -380 13 0 198 101 244
134 25 17 63 43 85 56 l40 23 -21 -24 c-11 -13 -56 -64 -100 -114 -184 -206
-302 -369 -381 -523 -29 -57 -53 -108 -53 -111 0 -3 12 -14 26 -24 l25 -19 47
44 c70 65 245 178 257 166 2 -2 -30 -48 -72 -103 -41 -55 -121 -170 -178 -255
-221 -335 -294 -529 -254 -675 l11 -39 22 25 c11 14 59 71 105 127 70 85 194
202 215 202 3 0 -26 -43 -65 -96 -208 -289 -317 -547 -306 -729 4 -54 14 -100
30 -140 l26 -60 16 39 c94 222 197 384 287 447 25 18 21 10 -27 -65 -220 -337
-258 -663 -122 -1036 56 -153 71 -190 77 -190 4 0 12 24 20 53 7 28 19 74 27
101 l14 48 44 -77 c25 -43 63 -101 85 -130 49 -64 161 -176 206 -207 26 -18
34 -32 39 -68 18 -122 61 -316 115 -520 68 -260 85 -347 100 -520 15 -170 49
-367 114 -665 65 -300 71 -337 92 -580 33 -368 20 -668 -41 -1005 -49 -266
-86 -343 -233 -490 -58 -57 -122 -131 -143 -163 -76 -117 -125 -326 -135 -577
-10 -218 21 -316 114 -361 34 -17 55 -20 93 -16 151 18 380 228 487 447 52
105 54 130 37 340 -16 205 61 362 199 406 31 10 72 31 91 47 36 29 76 98 89
152 12 50 8 234 -8 341 -34 226 -63 805 -71 1429 l-5 420 24 -100 c13 -55 47
-185 75 -290 89 -334 123 -511 136 -705 3 -52 18 -189 32 -305 35 -278 37
-462 6 -560 -24 -77 -75 -166 -131 -233 -229 -269 -332 -498 -372 -830 -9 -76
-9 -95 3 -119 29 -54 91 -96 203 -134 58 -20 89 -24 191 -24 121 0 121 0 160
31 52 43 60 80 40 186 -23 114 -22 251 2 304 32 70 59 84 165 84 140 1 207 40
243 145 25 69 22 228 -5 366 -43 214 -47 303 -47 954 1 571 6 777 36 1270 25
432 85 955 113 982 3 4 133 10 289 14 906 25 1895 135 2771 310 109 21 199 39
201 39 1 0 44 -51 96 -112 240 -287 481 -535 698 -717 103 -86 114 -102 113
-158 -2 -154 -248 -423 -683 -750 -283 -213 -643 -436 -793 -494 -45 -17 -99
-41 -121 -54 -63 -36 -161 -145 -305 -340 -93 -125 -172 -218 -259 -305 -115
-114 -131 -134 -180 -230 -29 -58 -82 -157 -117 -220 -68 -123 -88 -190 -73
-246 22 -76 107 -136 228 -158 l66 -12 3 -38 c2 -21 10 -40 18 -43 21 -8 44
16 44 47 0 27 1 27 86 34 158 12 323 63 382 119 49 46 112 163 134 248 19 75
20 91 9 154 -6 38 -23 88 -36 111 -32 54 -32 97 1 163 28 55 91 111 127 111
10 0 46 -20 78 -44 76 -58 136 -81 186 -71 58 11 122 82 162 180 51 124 139
228 376 448 424 392 1300 1073 1535 1192 26 13 59 38 72 54 l23 29 267 -261
c240 -237 270 -269 302 -334 76 -153 101 -306 93 -581 -14 -542 -202 -1076
-517 -1466 -74 -91 -143 -149 -220 -183 -30 -13 -68 -36 -83 -51 -73 -70 -117
-205 -117 -362 0 -155 34 -230 130 -289 40 -25 49 -36 52 -63 2 -25 8 -34 25
-36 17 -3 24 3 29 23 5 21 11 25 28 22 171 -41 383 15 461 121 67 91 90 205
100 486 7 193 15 229 59 264 32 25 57 19 117 -28 108 -87 220 -78 281 21 37
58 45 114 58 364 41 814 125 1590 214 1981 61 271 37 372 -95 388 -94 12 -102
15 -172 67 -171 129 -304 384 -354 679 -23 139 -20 363 8 655 22 225 24 299
24 730 l0 480 38 -44 c143 -164 304 -207 399 -105 101 109 40 303 -133 421
-24 16 -188 103 -364 191 -362 183 -450 233 -585 333 -114 85 -235 144 -413
203 -538 180 -1179 240 -1737 163 -353 -49 -619 -67 -995 -67 -227 0 -709 19
-985 39 -69 5 -232 17 -363 27 l-238 17 5 26 c18 90 31 450 30 831 0 494 -12
657 -70 1018 l-7 43 28 -11 c103 -39 463 -90 638 -90 137 0 143 5 107 79 -98
202 -353 451 -606 591 -108 60 -257 121 -358 146 -56 14 -65 19 -48 25 30 11
28 36 -7 103 l-30 56 112 0 c126 0 228 11 399 42 l116 21 104 -75 c440 -318
742 -484 1086 -597 223 -73 504 -126 722 -137 64 -3 135 -12 160 -21 25 -9
167 -71 316 -138 568 -258 665 -279 1131 -256 516 26 487 26 600 -3 56 -14
144 -30 195 -36 186 -19 514 -7 656 26 223 51 477 180 746 379 152 112 603
497 613 522 14 35 -64 55 -169 42 -126 -15 -224 -59 -532 -239 -481 -280 -705
-360 -1000 -360 -306 1 -418 82 -341 248 65 140 228 318 662 721 61 57 114
109 117 116 2 7 -1 21 -8 30 -11 15 -18 15 -95 1 -354 -67 -602 -190 -788
-390 -40 -42 -129 -163 -199 -267 -70 -105 -151 -215 -182 -245 -61 -60 -164
-115 -250 -133 -85 -18 -293 -13 -427 9 -345 56 -588 159 -678 286 -45 64 -55
98 -56 185 -2 175 98 369 423 820 l40 56 251 6 c280 7 434 24 610 66 247 60
460 155 677 300 240 161 363 278 736 700 131 148 151 175 140 188 -18 22 -116
11 -228 -26 -169 -57 -289 -129 -615 -366 -359 -262 -472 -333 -617 -387 -154
-57 -371 -48 -414 17 -39 59 12 168 242 520 147 223 253 395 288 463 18 35 10
62 -19 62 -19 0 -271 -158 -377 -237 -266 -198 -391 -340 -537 -613 -96 -178
-167 -237 -339 -280 -211 -52 -887 -92 -1006 -59 -58 16 -86 49 -86 102 0 151
158 394 602 925 70 84 128 156 128 161 0 5 -7 14 -15 21 -12 10 -28 10 -77 0
-324 -63 -703 -354 -960 -736 -74 -108 -169 -286 -203 -376 l-17 -46 -112 -6
c-321 -16 -378 -16 -373 -3 3 7 70 109 149 227 221 330 325 565 256 578 -22 4
-179 -85 -280 -160 -166 -123 -335 -316 -497 -570 l-62 -97 -112 5 c-232 11
-354 37 -414 89 l-38 33 0 88 c1 107 7 125 185 559 211 513 221 545 180 553
-9 1 -56 -22 -104 -53z m-317 -1564 c91 -22 208 -47 259 -57 l93 -17 -23 -24
c-12 -13 -56 -41 -97 -61 -74 -37 -76 -37 -196 -36 -113 0 -127 3 -247 42
-138 46 -348 128 -362 142 -4 4 25 11 65 15 41 4 115 15 164 25 109 23 133 21
344 -29z m1864 -90 c226 -36 366 -45 698 -46 l325 0 -91 -107 c-51 -59 -145
-176 -210 -260 -158 -204 -269 -315 -359 -359 -63 -30 -80 -34 -170 -37 -78
-3 -121 1 -191 17 -266 64 -658 272 -822 438 -80 81 -139 185 -149 266 l-7 47
87 0 c125 0 352 18 491 39 159 25 250 25 398 2z"/>
</g>
</svg>
