<?xml version="1.0" encoding="UTF-8"?>
<svg width="204px" height="492px" viewBox="0 0 204 492" version="1.1" xmlns="http://www.w3.org/2000/svg" xmlns:xlink="http://www.w3.org/1999/xlink">
    <title>Path 2</title>
    <g id="Page-2" stroke="none" stroke-width="1" fill="none" fill-rule="evenodd">
        <path d="M71.0564468,337.776734 C65.1163822,295.196905 76.5000857,268.360403 105.207557,257.267227 C148.268765,240.627464 183.022226,260.009324 198.606585,301.497512 C214.190944,342.9857 186.679862,399.200907 141.904864,406.859085 C97.129865,414.517262 88.0444984,414.557473 58.6010513,400.614675 C29.1576042,386.671877 14.4697621,368.742999 7.09682263,354.714481 C-0.276116809,340.685964 -0.314501929,306.795318 3.54833152,285.321665 C7.41116498,263.848011 44.3765274,225.785292 80.3672311,193.616628 C116.357935,161.447965 148.798293,94.9477971 145.027956,60.3748875 C141.257619,25.8019779 124.700207,7.46408011 105.20733,1.54787285 C85.7144539,-4.36833442 48.0107257,37.9961903 53.3058885,110.886047 C58.6010513,183.775904 129.746941,296.408411 136.095222,360.916796 C142.443503,425.42518 145.027956,452.674017 125.591084,480.053956 C106.154211,507.433895 58.6010513,477.407288 58.6010513,455.839922 C58.6010513,441.461679 61.1394222,433.504254 66.2161639,431.967648" id="Path-2" stroke="#3DFF00"></path>
    </g>
</svg>