<?xml version="1.0" standalone="no"?>
<!DOCTYPE svg PUBLIC "-//W3C//DTD SVG 20010904//EN"
 "http://www.w3.org/TR/2001/REC-SVG-20010904/DTD/svg10.dtd">
<svg version="1.0" xmlns="http://www.w3.org/2000/svg"
 width="1280.000000pt" height="1048.000000pt" viewBox="0 0 1280.000000 1048.000000"
 preserveAspectRatio="xMidYMid meet">
<metadata>
Created by potrace 1.15, written by Peter Selinger 2001-2017
</metadata>
<g transform="translate(0.000000,1048.000000) scale(0.100000,-0.100000)"
fill="#000000" stroke="none">
<path d="M9988 10438 c-18 -36 -22 -57 -21 -129 2 -128 18 -195 94 -401 83
-225 102 -322 102 -508 0 -143 -16 -231 -51 -289 l-19 -31 -25 37 c-14 21 -53
69 -87 108 -81 90 -129 164 -199 304 l-57 114 0 155 c0 173 -9 195 -44 111
-89 -206 -51 -388 152 -732 97 -164 107 -182 107 -196 0 -17 -78 -13 -118 6
-51 24 -135 110 -165 169 -16 31 -70 92 -146 166 -90 88 -138 145 -194 230
-41 62 -81 127 -90 143 -25 50 -38 136 -36 237 3 123 -12 151 -44 84 -27 -58
-49 -184 -41 -245 20 -163 84 -285 313 -600 38 -52 74 -111 80 -131 17 -58 13
-169 -8 -215 -20 -44 -106 -157 -260 -340 -96 -115 -187 -254 -252 -386 -62
-125 -108 -390 -95 -549 13 -156 80 -346 192 -542 33 -57 62 -111 66 -121 12
-29 -16 -31 -87 -6 -76 27 -98 18 -65 -24 27 -34 130 -108 193 -138 40 -20 64
-45 143 -152 182 -244 437 -532 607 -683 125 -112 157 -152 157 -196 0 -31 -3
-34 -52 -43 l-36 -7 -7 44 c-10 57 -44 123 -93 179 -91 102 -332 289 -374 289
-27 0 -45 -51 -64 -176 -15 -103 -15 -110 5 -189 26 -105 51 -163 85 -196 l27
-27 -156 -7 c-460 -22 -1034 29 -1553 136 -106 22 -212 48 -236 58 -67 29
-282 97 -377 120 -323 76 -490 72 -806 -20 -129 -37 -282 -90 -392 -136 -169
-70 -383 -133 -551 -162 -288 -50 -688 -40 -1460 34 -402 38 -1019 48 -1220
20 -237 -34 -484 -127 -745 -280 -49 -29 -108 -56 -130 -59 -86 -14 -169 -50
-210 -91 -91 -92 -219 -253 -242 -303 -27 -62 -41 -152 -47 -310 -4 -110 -3
-112 17 -106 18 6 19 3 15 -40 -3 -26 -1 -46 4 -46 5 0 28 13 51 29 23 15 53
32 66 36 21 6 23 5 18 -22 -14 -69 -17 -260 -7 -388 13 -168 23 -234 56 -341
39 -131 35 -152 -77 -384 -89 -183 -208 -384 -269 -452 -77 -86 -239 -171
-560 -293 -238 -90 -280 -125 -280 -230 0 -84 -40 -247 -95 -385 -64 -160
-123 -324 -215 -590 -64 -186 -124 -334 -148 -362 -20 -25 -37 -145 -24 -173
7 -14 12 -46 12 -70 0 -37 3 -45 19 -45 10 0 26 11 35 25 9 14 20 25 24 25 4
0 7 -28 7 -63 0 -51 5 -71 25 -103 14 -21 39 -64 54 -95 34 -68 100 -151 148
-185 49 -35 94 -43 236 -44 116 0 124 1 129 20 3 11 13 20 22 20 44 1 45 15 8
95 -21 42 -51 97 -67 122 -17 24 -30 52 -30 62 0 10 -13 36 -30 57 -16 21 -42
57 -56 79 -15 22 -43 60 -63 84 l-36 44 1 96 c2 149 76 484 156 701 74 205
178 387 275 483 91 91 245 146 408 147 92 0 112 5 290 67 194 69 317 123 452
202 67 39 163 87 213 106 50 19 123 53 161 76 39 22 72 39 74 37 2 -1 -7 -45
-20 -96 -51 -199 -155 -365 -356 -565 -118 -117 -124 -126 -119 -190 3 -45 55
-214 100 -327 118 -292 297 -839 316 -965 34 -220 120 -423 148 -349 3 9 6 24
6 34 0 10 5 22 10 25 15 9 79 -50 119 -109 48 -70 130 -149 184 -175 50 -24
178 -32 279 -18 52 8 58 11 58 33 0 15 6 24 15 24 38 0 1 86 -82 188 -19 23
-39 58 -44 76 -13 48 -127 151 -231 209 -47 27 -93 56 -102 66 -22 24 -60 112
-123 286 -137 376 -213 654 -213 780 0 48 2 51 69 116 59 58 91 79 237 152
387 194 535 335 696 663 58 119 93 177 136 225 31 36 68 80 82 98 l26 34 73
-23 c40 -13 101 -41 135 -62 125 -79 225 -122 293 -126 l63 -4 49 51 c27 28
54 51 59 51 6 0 97 -22 204 -49 321 -82 444 -96 833 -96 278 0 361 4 525 23
346 40 509 62 603 81 51 11 117 22 148 26 l55 7 13 -187 c13 -201 27 -301 61
-439 42 -172 43 -238 11 -403 -12 -60 -2 -132 28 -213 29 -79 52 -313 52 -531
0 -207 -10 -285 -52 -436 -16 -57 -30 -117 -31 -135 -3 -28 1 -33 30 -41 28
-9 32 -14 32 -44 0 -39 26 -56 45 -30 7 10 15 17 18 17 3 0 18 -39 32 -87 44
-142 97 -228 169 -273 46 -28 177 -52 267 -48 65 3 74 5 77 23 2 11 11 28 19
37 13 15 13 23 -2 70 -22 67 -50 124 -82 167 -14 18 -30 52 -35 75 -5 22 -40
104 -78 181 -43 87 -73 163 -80 200 -11 61 -60 721 -60 807 0 31 12 73 36 130
36 82 37 85 45 263 7 163 10 189 39 275 17 52 53 173 80 269 27 96 51 175 52
176 2 2 28 -1 58 -6 30 -5 127 -20 216 -34 88 -14 182 -33 210 -41 91 -28 481
-123 655 -159 278 -59 349 -90 434 -193 60 -73 70 -110 69 -252 -2 -144 -106
-671 -160 -812 -39 -103 -80 -250 -90 -326 -4 -35 -1 -65 11 -101 17 -53 25
-60 44 -37 14 16 59 18 68 2 4 -6 7 -45 8 -87 2 -159 73 -228 277 -271 l58
-12 29 33 c40 45 55 134 43 256 -5 50 -7 111 -4 137 6 67 -12 136 -68 264 -45
100 -50 120 -50 182 0 145 108 657 181 855 16 45 35 123 41 172 11 86 10 92
-12 135 -58 115 -174 215 -343 295 -126 60 -335 144 -409 164 -27 8 -48 17
-48 21 0 11 100 60 123 60 40 0 208 204 295 360 17 31 52 79 76 108 25 29 62
84 82 123 62 117 154 183 298 210 74 14 120 46 232 161 89 92 108 106 170 129
64 25 241 50 339 48 17 0 44 2 60 5 170 30 290 38 408 27 175 -18 241 -34 378
-93 l121 -52 28 -61 c46 -102 116 -154 239 -177 104 -19 225 12 244 62 9 24
17 30 40 30 48 0 141 56 164 98 45 81 57 245 24 317 -23 50 -534 567 -739 748
-163 144 -348 296 -504 415 -59 45 -103 84 -97 88 6 3 36 8 67 11 66 6 178
-21 376 -91 281 -100 731 -319 896 -436 142 -101 289 -189 345 -206 33 -9 48
-10 66 0 34 17 69 74 69 112 0 26 8 39 36 61 41 32 64 71 64 107 0 15 7 27 18
30 10 4 28 15 40 27 28 25 16 53 -32 76 -32 15 -33 17 -20 42 8 14 14 34 14
44 0 9 7 17 16 17 8 0 29 14 46 30 27 28 30 36 25 77 -4 37 0 53 23 92 16 25
31 64 33 85 4 31 16 50 52 84 35 34 45 51 43 71 -3 27 -14 30 -57 16 -23 -7
-23 -7 -7 16 9 13 16 35 16 49 0 14 16 45 35 69 58 72 56 121 -4 121 -38 0
-72 -26 -175 -133 -84 -88 -100 -99 -206 -150 -113 -55 -214 -88 -440 -143
-107 -27 -129 -29 -310 -28 -152 1 -207 4 -250 17 -224 68 -372 95 -627 117
-125 10 -173 21 -173 40 0 20 124 70 265 106 137 35 476 139 685 210 208 71
308 115 470 209 91 53 234 130 319 171 122 60 165 87 206 128 64 63 115 150
115 194 0 49 -24 40 -59 -23 -34 -59 -60 -81 -109 -91 -63 -13 -36 44 85 177
77 85 127 184 128 252 0 28 -4 51 -10 53 -5 2 -22 -23 -38 -55 -18 -39 -33
-58 -44 -57 -10 0 -25 -16 -39 -44 -12 -25 -36 -58 -52 -73 -30 -29 -98 -52
-107 -36 -10 15 31 82 104 169 105 126 155 241 137 315 -9 34 -20 26 -49 -38
-23 -50 -125 -187 -162 -217 -17 -14 -18 -14 -6 9 7 13 34 55 59 94 77 120
108 246 83 337 -10 35 -35 32 -39 -5 -11 -132 -48 -220 -134 -320 -55 -64
-118 -157 -118 -175 0 -5 -5 -10 -11 -10 -8 0 -10 18 -6 59 5 65 49 165 136
316 28 49 61 115 72 145 27 70 30 181 5 228 -21 40 -36 33 -36 -17 0 -118 -41
-217 -140 -342 -58 -73 -87 -124 -173 -309 -60 -128 -151 -253 -277 -381 -81
-82 -121 -114 -175 -142 -184 -92 -544 -244 -730 -307 -60 -21 -176 -70 -256
-109 -81 -39 -184 -81 -230 -95 l-84 -24 -28 20 c-63 45 -373 486 -556 790
-182 304 -248 533 -239 837 5 162 22 224 89 337 51 85 188 224 289 293 135 93
212 126 322 140 215 26 504 46 653 45 207 -2 558 -29 705 -55 163 -29 238 -15
280 54 36 58 20 85 -29 51 -17 -12 -26 -13 -34 -5 -6 6 -30 11 -53 11 -34 0
-46 5 -62 27 -17 23 -25 26 -68 23 -75 -5 -127 -1 -138 10 -7 7 0 10 19 10 37
0 104 30 128 57 10 11 22 35 27 52 11 39 -8 51 -43 28 -16 -10 -38 -13 -75 -9
l-52 5 49 61 c26 33 56 75 65 93 37 73 10 71 -80 -7 -82 -71 -114 -82 -249
-84 -98 -1 -100 0 -103 23 -6 39 5 64 59 131 97 121 132 190 94 190 -8 0 -43
-26 -77 -59 -65 -60 -102 -83 -151 -95 -26 -6 -28 -5 -22 16 11 34 20 43 119
117 120 90 179 155 221 242 40 84 50 134 34 174 l-11 30 -11 -25 c-52 -124
-64 -144 -108 -184 -70 -63 -176 -88 -199 -47 -16 31 -12 172 10 282 23 119
71 214 157 309 29 32 53 61 53 64 0 10 -50 6 -73 -6 -101 -53 -186 -165 -228
-299 -26 -85 -36 -102 -67 -127 -53 -42 -95 -61 -146 -68 -40 -6 -45 -4 -62
22 -16 24 -19 47 -18 144 0 63 6 144 13 180 16 82 75 197 147 284 31 37 53 70
50 73 -13 14 -80 -11 -125 -47 -51 -40 -116 -119 -144 -176 -9 -17 -24 -61
-33 -98 l-17 -67 -34 88 c-76 192 -75 190 -81 341 -5 156 -11 167 -50 92 -22
-42 -23 -54 -19 -190 3 -140 5 -151 56 -320 59 -199 76 -313 54 -374 -32 -93
-110 -186 -155 -186 -63 0 -84 53 -98 250 -15 211 -51 332 -174 579 -74 148
-86 191 -95 330 -7 119 -18 134 -53 69z m972 -1139 c-27 -78 -43 -111 -86
-170 -43 -59 -84 -78 -119 -55 -27 18 -32 47 -16 90 9 21 231 209 239 201 2
-1 -7 -31 -18 -66z m-1277 -863 c-10 -13 -40 -50 -68 -82 -76 -90 -190 -279
-229 -380 -100 -258 -107 -527 -22 -779 26 -74 76 -195 106 -255 44 -87 38
-115 -19 -86 -51 27 -164 204 -225 356 -79 193 -120 445 -97 596 33 225 203
439 481 608 85 52 99 56 73 22z"/>
</g>
</svg>
