<?xml version="1.0" encoding="UTF-8"?>
<svg width="604px" height="629px" viewBox="0 0 604 629" version="1.1" xmlns="http://www.w3.org/2000/svg" xmlns:xlink="http://www.w3.org/1999/xlink">
    <title>Path</title>
    <g id="Page-1" stroke="none" stroke-width="1" fill="none" fill-rule="evenodd">
        <path d="M493.757813,284.71875 C540.638021,284.71875 567.875,284.71875 575.46875,284.71875 C582.239233,284.71875 604.503068,287.040005 601.71875,295.503906 C596.621094,311 574.839977,311.519968 558.390625,319.058594 C541.839994,326.643635 542.60782,364.409703 542.300781,423.443359 C542.171096,448.377624 542.171096,494.619161 542.300781,562.167969 C539.891927,584.673177 495.358073,604.634115 408.699219,622.050781 C278.710938,648.175781 -75.4474454,584.283965 17.3867188,230.964844 C42.6054688,134.984375 115.091128,69.517793 166.398438,37.1328125 C298.047663,-45.9636831 443.044855,43.9883612 475.414063,37.1328125 C489.692497,34.1087502 496.959609,21.844434 502.855469,17.3398438 C509.342926,12.3832577 523.398899,-30.7254301 531.316406,107.015625 C533.554576,145.953125 533.554576,168.221538 531.316406,181.175781 C528.464075,197.684709 515.944544,179.256324 493.757813,125.890625 C466.091146,78.2109375 440.515625,51.2395833 417.03125,44.9765625 C381.804687,35.5820313 286.816406,16.1171875 216.269531,54.8515625 C145.722656,93.5859375 91.6054687,191.214844 106.542969,327.511719 C121.480469,463.808594 165.308594,530.765625 252.15625,572.765625 C281.1201,586.772701 367.390057,585.60733 402.046875,572.765625 C450.086766,554.964969 452.980469,518.707031 452.980469,481.347656 C452.980469,470.819173 455.3152,357.796692 446.035156,336.957031 C439.867303,323.106238 435.530906,322.599584 429.695312,319.058594 C419.627785,312.9497 408.686519,311 402.046875,311 C391.558594,311 353.101562,294.015625 392.363281,284.71875 C406.556384,281.357932 421.200051,284.537424 435.296875,284.71875 C460.195437,285.039017 481.987493,284.71875 486.574219,284.71875" id="Path" stroke="#00FF35" stroke-width="3"></path>
    </g>
</svg>