<?xml version="1.0" standalone="no"?>
<!DOCTYPE svg PUBLIC "-//W3C//DTD SVG 20010904//EN"
 "http://www.w3.org/TR/2001/REC-SVG-20010904/DTD/svg10.dtd">
<svg version="1.0" xmlns="http://www.w3.org/2000/svg"
 width="1115.000000pt" height="1280.000000pt" viewBox="0 0 1115.000000 1280.000000"
 preserveAspectRatio="xMidYMid meet">
<g transform="translate(0.000000,1280.000000) scale(0.100000,-0.100000)"
fill="#000000" stroke="none">
<path d="M9785 12783 c-220 -53 -339 -119 -585 -324 -213 -178 -398 -312 -592
-428 -165 -98 -562 -383 -983 -704 -244 -186 -354 -256 -507 -323 -249 -109
-421 -154 -928 -239 -525 -89 -646 -120 -906 -235 -294 -130 -540 -279 -774
-468 -214 -173 -380 -323 -615 -552 -313 -307 -419 -387 -830 -622 -530 -304
-815 -414 -1365 -528 -632 -131 -1036 -295 -1475 -599 -112 -78 -125 -93 -125
-143 0 -84 89 -289 194 -446 91 -136 380 -458 561 -625 269 -248 447 -371 837
-581 48 -26 90 -51 93 -56 3 -5 -55 -109 -128 -232 -189 -314 -355 -615 -533
-963 -167 -329 -247 -502 -319 -700 -209 -567 -240 -645 -390 -975 -202 -447
-308 -752 -386 -1110 -26 -122 -29 -161 -12 -167 17 -6 25 18 84 234 92 340
160 503 291 699 104 155 195 262 398 465 184 185 245 235 363 299 176 95 298
130 390 110 259 -53 493 -371 654 -885 74 -237 98 -389 113 -715 14 -312 0
-521 -60 -865 -56 -318 -142 -663 -225 -901 -73 -208 -73 -249 -2 -121 117
208 295 628 397 937 153 461 238 878 247 1215 16 556 -76 881 -536 1893 -168
370 -209 469 -246 596 -78 273 -104 606 -70 900 20 171 29 203 63 220 19 10
93 16 262 20 276 8 381 22 585 76 170 45 280 81 410 134 156 65 524 252 690
351 88 52 171 98 183 102 17 4 31 -1 49 -19 20 -20 27 -44 39 -122 18 -118 38
-180 119 -357 288 -636 735 -1194 1355 -1694 159 -129 376 -338 467 -450 96
-119 203 -284 276 -425 139 -268 199 -492 237 -885 7 -66 16 -124 20 -128 18
-20 33 171 27 348 -7 202 -18 259 -92 475 -119 346 -177 469 -434 920 -254
443 -356 657 -408 858 -20 80 -26 129 -30 277 -8 272 28 524 114 787 90 277
353 730 654 1128 216 285 308 429 394 613 99 214 175 469 195 657 15 138 17
478 6 940 l-8 375 26 125 c14 69 44 187 66 264 25 85 40 158 39 190 0 50 -2
46 -75 -139 -178 -450 -306 -656 -492 -793 -37 -27 -136 -87 -219 -133 -192
-104 -195 -109 -44 -85 96 16 179 9 301 -25 133 -36 205 -94 236 -191 22 -69
31 -350 15 -430 -21 -100 -307 -651 -456 -878 -100 -153 -322 -388 -441 -467
-77 -51 -127 -54 -207 -15 -157 79 -268 240 -324 472 -23 98 -23 328 1 495 58
400 179 863 286 1092 99 211 257 385 430 473 25 13 88 39 139 59 l95 36 73 90
c81 101 115 134 292 278 68 56 119 103 113 105 -13 4 -102 -41 -160 -80 -55
-38 -147 -80 -412 -188 -358 -146 -376 -157 -455 -276 -47 -70 -85 -165 -290
-709 -237 -630 -282 -772 -324 -1025 -39 -234 -48 -384 -61 -1020 -9 -489 -13
-517 -89 -675 -74 -151 -168 -226 -287 -226 -136 -1 -214 71 -329 304 -124
249 -184 475 -206 768 -26 333 34 721 160 1051 21 57 42 112 46 123 12 35 -63
-55 -126 -150 -108 -164 -204 -428 -253 -699 -47 -252 -57 -480 -35 -745 6
-72 8 -143 5 -156 -12 -46 -58 -60 -186 -59 -94 1 -137 7 -235 33 -218 57
-324 120 -660 387 -159 126 -335 245 -434 293 -144 70 -308 76 -525 21 -115
-29 -116 -34 -6 -50 96 -14 174 -52 277 -135 160 -128 309 -353 331 -501 6
-38 13 -119 17 -180 l5 -112 -103 -98 c-197 -187 -376 -262 -538 -224 -91 21
-299 91 -376 126 -320 146 -730 555 -878 877 -49 106 -58 161 -53 327 3 135 6
150 34 215 59 137 169 269 307 366 212 151 625 298 967 345 152 21 493 29 619
15 163 -18 337 -84 496 -190 93 -62 241 -209 357 -357 103 -130 151 -177 156
-151 2 8 -22 76 -53 151 -86 211 -99 276 -99 496 0 208 14 308 65 467 76 237
195 431 460 748 202 243 374 391 557 478 145 70 190 58 332 -82 104 -103 103
-100 200 -463 39 -144 72 -263 74 -266 2 -2 7 54 11 125 13 246 44 371 140
568 95 194 172 276 340 360 129 65 169 71 380 58 97 -7 182 -10 190 -6 23 8
18 30 -17 81 -43 63 -43 102 2 176 58 95 117 163 166 192 108 64 357 140 551
169 149 22 189 20 218 -10 22 -21 25 -33 25 -100 0 -55 3 -76 12 -73 6 2 45
60 86 129 41 68 99 155 130 192 117 144 299 288 465 368 131 62 203 53 286
-36 48 -53 61 -95 61 -206 0 -120 -20 -188 -164 -546 -158 -392 -227 -576
-309 -828 -80 -246 -89 -293 -89 -472 1 -156 14 -264 44 -363 27 -87 33 -67
41 135 4 88 13 198 22 245 61 338 230 677 532 1065 225 289 349 491 460 749
35 83 81 251 108 401 30 160 85 408 110 490 27 88 85 184 156 258 69 72 96 61
64 -28 -19 -54 -18 -102 4 -151 44 -97 180 -99 369 -6 40 20 87 48 105 63 30
26 31 29 17 52 -8 14 -28 41 -44 61 -56 71 -45 152 27 196 63 39 134 14 163
-56 21 -50 18 -147 -7 -204 -12 -27 -19 -56 -16 -64 4 -9 31 -29 62 -47 80
-45 131 -108 157 -192 39 -130 12 -349 -72 -577 -16 -44 -74 -181 -129 -303
-123 -278 -179 -418 -246 -624 -89 -267 -204 -474 -443 -791 -49 -64 -116
-153 -149 -197 -222 -295 -388 -740 -423 -1135 -17 -191 -12 -390 9 -390 4 0
29 55 56 123 91 232 97 240 315 419 225 185 827 665 955 760 198 150 343 213
432 189 58 -16 143 -79 184 -138 198 -284 110 -1009 -187 -1545 -190 -343
-416 -592 -794 -875 -431 -322 -659 -549 -879 -873 -124 -182 -192 -332 -250
-550 -36 -135 -56 -238 -66 -335 -7 -66 -6 -69 10 -54 12 12 21 50 31 128 16
136 56 257 130 402 105 205 231 376 396 535 107 104 157 130 237 122 66 -6
108 -39 139 -107 23 -50 26 -67 25 -166 -1 -60 -13 -213 -27 -340 -40 -360
-49 -502 -49 -755 0 -246 14 -471 39 -653 25 -179 34 -169 26 28 -10 254 -7
646 7 805 42 485 157 951 345 1402 156 374 246 520 787 1278 582 814 663 970
730 1390 23 146 22 212 -5 403 -27 192 -73 325 -154 444 -41 60 -178 213 -191
213 -4 0 -66 -47 -137 -104 -143 -115 -269 -236 -450 -429 -65 -70 -127 -127
-136 -127 -27 0 -56 34 -69 82 -16 61 -6 246 19 340 12 42 46 143 77 225 120
314 215 608 290 895 107 416 121 611 59 828 -25 87 -47 121 -148 229 -97 106
-116 142 -116 224 0 90 -84 332 -153 440 -61 95 -105 110 -232 80z"/>
</g>
</svg>
