<?xml version="1.0" standalone="no"?>
<!DOCTYPE svg PUBLIC "-//W3C//DTD SVG 20010904//EN"
 "http://www.w3.org/TR/2001/REC-SVG-20010904/DTD/svg10.dtd">
<svg version="1.0" xmlns="http://www.w3.org/2000/svg"
 width="1065.000000pt" height="1280.000000pt" viewBox="0 0 1065.000000 1280.000000"
 preserveAspectRatio="xMidYMid meet">
<metadata>
Created by potrace 1.15, written by Peter Selinger 2001-2017
</metadata>
<g transform="translate(0.000000,1280.000000) scale(0.100000,-0.100000)"
fill="#000000" stroke="none">
<path d="M8492 12780 c-71 -43 -99 -174 -112 -515 -5 -132 -14 -339 -20 -460
-6 -121 -8 -278 -5 -350 5 -100 2 -171 -14 -305 -27 -232 -33 -260 -96 -470
-61 -203 -88 -271 -116 -296 -19 -17 -21 -16 -48 10 -17 16 -34 48 -41 74 -20
76 -24 259 -10 460 16 238 16 278 -10 502 -53 468 -84 585 -170 628 -89 44
-141 22 -199 -88 l-33 -62 7 -302 c4 -193 3 -342 -4 -416 -6 -63 -20 -239 -31
-390 -11 -151 -27 -318 -36 -370 -11 -64 -18 -204 -24 -425 -4 -181 -12 -348
-18 -370 -6 -22 -15 -89 -21 -150 -12 -128 -24 -166 -92 -295 -64 -119 -177
-307 -189 -315 -6 -4 -10 23 -10 67 -1 84 -16 256 -25 281 -10 24 -40 30 -72
14 -45 -24 -209 -200 -236 -253 -13 -27 -36 -80 -50 -119 -14 -38 -37 -97 -50
-130 -14 -33 -37 -118 -51 -190 -32 -158 -188 -626 -257 -772 -57 -120 -107
-177 -295 -338 -71 -62 -152 -138 -179 -169 -90 -106 -331 -286 -446 -332 -35
-14 -124 -39 -199 -55 -169 -36 -192 -51 -282 -184 -37 -55 -90 -124 -118
-152 -61 -63 -234 -188 -350 -251 -61 -34 -115 -77 -198 -156 -125 -119 -194
-160 -259 -154 l-38 3 1 50 c0 28 12 107 27 176 51 241 32 350 -92 519 -27 36
-56 79 -64 96 -18 35 -45 166 -77 374 -24 157 -44 226 -74 258 -11 13 -55 41
-96 63 -144 75 -174 113 -191 251 -11 88 -29 138 -72 202 -36 51 -35 97 4 244
34 130 34 183 1 249 -25 48 -46 67 -102 92 -80 36 -228 23 -317 -30 l-33 -18
0 25 c0 14 10 81 22 147 25 140 29 289 9 327 -8 14 -22 34 -33 46 -17 19 -24
20 -68 11 -73 -14 -133 -1 -238 54 -53 28 -115 53 -139 56 -31 4 -50 14 -68
35 -39 47 -49 99 -47 265 l2 151 -30 31 c-35 35 -96 55 -211 71 -124 17 -130
21 -123 73 12 85 -39 136 -158 158 -60 11 -72 10 -108 -6 -23 -10 -50 -29 -60
-42 l-18 -24 -12 54 c-16 79 -66 158 -111 175 -31 12 -41 11 -95 -9 -47 -18
-76 -39 -143 -105 l-83 -84 7 92 c12 151 10 497 -4 559 -15 70 -45 102 -91 97
-50 -5 -83 -54 -170 -257 l-78 -181 -5 378 c-6 475 -16 524 -100 524 -21 0
-48 -9 -67 -23 -67 -50 -178 -251 -200 -366 -7 -32 -14 -134 -17 -228 l-6
-170 -62 240 c-88 346 -108 404 -147 442 -18 17 -58 44 -88 59 -46 24 -68 28
-137 29 -103 0 -124 -15 -131 -97 -13 -162 176 -904 292 -1143 29 -60 97 -182
151 -270 105 -171 134 -228 135 -260 0 -13 -16 -30 -46 -49 -65 -41 -81 -79
-67 -161 16 -95 61 -183 126 -247 74 -72 159 -130 412 -278 377 -222 484 -298
608 -439 124 -139 198 -266 336 -580 103 -231 111 -272 111 -535 0 -237 -5
-215 133 -536 170 -396 181 -477 78 -545 -21 -14 -104 -52 -184 -84 -195 -78
-241 -107 -367 -231 -170 -168 -312 -360 -352 -474 -25 -73 -22 -125 13 -266
40 -156 40 -239 5 -449 -47 -277 -44 -415 9 -550 62 -160 182 -245 268 -192
45 28 57 58 57 150 0 68 3 83 28 122 36 55 148 178 272 295 l95 91 115 -44
c63 -24 176 -73 250 -110 121 -60 143 -74 222 -153 74 -73 94 -100 129 -175
51 -109 60 -181 34 -287 -9 -40 -25 -89 -35 -108 -25 -48 -101 -119 -258 -239
-140 -108 -200 -164 -237 -221 -35 -54 -72 -178 -100 -328 -53 -290 -57 -305
-85 -334 -30 -30 -32 -30 -254 -54 -169 -18 -339 -16 -651 7 -113 9 -164 9
-206 0 -117 -25 -270 -119 -339 -209 -32 -41 -35 -51 -35 -112 0 -61 4 -74 64
-190 101 -198 136 -240 170 -205 14 14 16 43 14 185 l-3 170 23 0 c12 0 49 -7
82 -15 33 -8 126 -18 208 -22 81 -3 147 -6 147 -7 0 -1 -9 -30 -20 -64 -39
-125 -20 -181 111 -317 66 -69 79 -78 92 -66 15 12 15 15 0 37 -35 53 9 170
100 271 55 60 94 73 160 53 70 -21 92 -52 106 -156 26 -182 4 -320 -59 -366
-66 -48 -239 -44 -341 7 -27 14 -49 23 -49 20 0 -21 49 -94 86 -131 111 -107
254 -138 364 -79 69 38 270 235 295 290 23 50 23 126 0 228 -20 91 -14 156 18
191 18 19 42 27 132 41 209 32 420 77 490 104 122 47 215 120 354 277 92 105
139 134 220 134 50 0 108 -21 123 -44 15 -23 7 -100 -18 -174 -15 -42 -69
-168 -120 -279 -52 -110 -101 -230 -109 -265 -16 -70 -35 -290 -35 -408 l0
-75 -187 -53 c-331 -92 -401 -105 -530 -97 -144 9 -178 -1 -204 -59 -10 -22
-19 -60 -19 -83 0 -43 0 -43 -36 -43 -55 0 -113 -21 -144 -52 -58 -57 -150
-346 -150 -470 0 -53 3 -63 29 -87 38 -35 117 -60 214 -68 64 -5 77 -4 77 9 0
8 -9 84 -21 168 -11 83 -19 153 -17 155 2 1 41 -2 88 -8 107 -12 188 0 343 50
65 21 117 36 117 32 0 -4 -20 -70 -45 -147 -54 -167 -92 -229 -206 -336 l-81
-76 42 0 c22 0 76 7 118 16 210 42 323 127 348 259 14 79 59 142 129 177 35
18 50 20 150 14 102 -7 113 -6 136 13 38 29 65 137 84 333 l6 66 127 -5 c152
-7 474 12 575 32 82 17 141 53 171 104 14 24 23 71 33 163 20 193 74 386 105
376 7 -2 47 -62 90 -134 129 -217 264 -404 293 -404 7 0 34 12 61 28 47 26 55
27 220 30 l170 4 12 -53 c18 -74 70 -176 104 -200 26 -19 40 -20 196 -17 l167
3 86 -57 c186 -124 286 -164 347 -139 27 11 44 35 115 162 28 50 89 109 112
109 8 0 33 -29 55 -64 23 -36 57 -79 76 -96 46 -40 146 -90 181 -90 50 0 58
12 62 100 l3 82 37 -8 c86 -20 201 0 247 43 21 19 25 31 21 56 -6 42 17 86 45
87 4 0 33 -22 65 -48 126 -104 150 -107 244 -32 34 27 66 50 72 50 5 0 34 -7
65 -16 69 -20 147 -15 287 21 263 67 309 99 367 260 53 145 60 179 57 269 l-4
81 56 11 c74 15 107 32 142 76 23 29 31 51 35 91 6 70 -16 118 -95 217 -33 41
-82 118 -108 170 -92 179 -181 243 -750 538 -421 218 -474 245 -565 285 -62
27 -111 59 -180 118 -113 96 -141 113 -299 184 -151 67 -218 115 -347 247
-106 107 -124 139 -124 219 0 86 84 416 121 476 36 58 56 47 191 -112 80 -95
137 -142 210 -175 97 -44 143 -13 191 129 18 52 40 99 49 105 13 8 40 3 113
-23 165 -58 256 -53 336 16 19 17 61 44 94 61 60 30 87 54 118 103 15 25 18
26 64 17 113 -21 179 15 207 114 26 87 89 134 263 195 76 27 83 28 313 28 223
0 238 1 284 23 79 36 152 106 224 216 67 100 68 101 160 151 52 28 118 72 149
99 74 66 369 390 403 444 16 23 38 80 50 125 31 116 98 299 170 462 86 194
110 272 110 353 0 81 -21 122 -78 151 -60 30 -81 103 -50 168 7 15 47 53 89
84 126 95 212 216 349 491 109 218 124 258 156 411 14 67 41 160 60 206 19 47
34 92 34 101 0 28 -30 59 -70 71 -21 7 -55 25 -75 42 -33 27 -36 33 -33 75 3
51 -4 45 123 104 82 39 145 95 145 129 0 13 9 44 20 68 28 61 25 91 -16 184
-45 102 -54 192 -30 318 20 106 20 132 1 169 -21 40 -63 60 -130 60 -58 0 -95
12 -95 32 0 6 16 30 34 53 54 65 72 109 58 140 -16 34 -49 45 -134 45 l-71 0
6 35 c10 63 75 164 137 212 70 54 113 112 157 212 51 118 41 181 -26 166 -25
-5 -33 -2 -47 21 -26 38 -21 74 26 209 22 66 44 148 47 181 5 57 4 63 -18 77
-14 8 -60 17 -110 20 -124 8 -209 50 -209 102 0 13 28 53 66 96 89 101 184
244 184 277 0 31 -33 108 -57 134 -28 31 -73 22 -164 -33 -46 -28 -114 -66
-150 -84 -93 -48 -124 -76 -139 -131 -13 -46 -74 -148 -102 -171 -15 -13 -149
-36 -157 -27 -3 3 22 58 56 122 34 64 89 182 124 262 79 183 81 216 24 316
-38 66 -42 69 -80 72 -94 6 -139 -53 -304 -401 -87 -185 -157 -267 -226 -267
-22 0 -23 3 -15 23 5 12 23 71 41 131 17 61 48 153 69 205 20 53 52 152 69
221 18 69 50 180 72 248 59 183 123 518 116 608 -7 92 -38 165 -91 210 -50 43
-83 41 -134 -9 -45 -43 -146 -245 -172 -343 -12 -43 -45 -153 -75 -244 -34
-106 -61 -212 -75 -295 -30 -192 -60 -290 -164 -553 -51 -130 -101 -259 -110
-287 -16 -49 -54 -121 -60 -114 -6 7 22 284 33 329 19 76 24 382 12 645 -8
181 -21 318 -47 495 -47 331 -71 425 -118 473 -25 24 -102 23 -144 -3z"/>
</g>
</svg>
