<?xml version="1.0" standalone="no"?>
<!DOCTYPE svg PUBLIC "-//W3C//DTD SVG 20010904//EN"
 "http://www.w3.org/TR/2001/REC-SVG-20010904/DTD/svg10.dtd">
<svg version="1.0" xmlns="http://www.w3.org/2000/svg"
 width="896.000000pt" height="1280.000000pt" viewBox="0 0 896.000000 1280.000000"
 preserveAspectRatio="xMidYMid meet">
<metadata>
Created by potrace 1.15, written by Peter Selinger 2001-2017
</metadata>
<g transform="translate(0.000000,1280.000000) scale(0.100000,-0.100000)"
fill="#000000" stroke="none">
<path d="M2263 12767 c-202 -84 -356 -211 -646 -535 -113 -126 -249 -270 -302
-320 -95 -89 -103 -94 -374 -233 -309 -158 -391 -204 -536 -297 -159 -103
-209 -145 -255 -218 -158 -251 -158 -559 1 -1054 l40 -126 -70 -209 c-91 -274
-114 -382 -115 -552 -1 -72 2 -134 6 -138 4 -4 19 2 35 13 54 38 173 92 250
113 102 28 205 23 285 -13 65 -30 88 -53 357 -341 680 -732 1249 -1072 1866
-1115 l100 -7 -1 -85 c0 -47 -2 -149 -5 -227 -6 -199 10 -208 114 -64 79 110
199 229 313 309 185 132 454 244 710 295 101 21 120 22 122 10 6 -25 -38 -62
-99 -84 -32 -12 -65 -29 -74 -39 -15 -16 -10 -20 77 -63 112 -56 225 -139 332
-244 191 -189 314 -372 591 -883 70 -129 165 -297 211 -372 45 -76 77 -138 71
-138 -7 0 -79 7 -162 15 -218 23 -612 30 -786 16 -363 -30 -634 -100 -902
-234 -132 -65 -148 -76 -232 -161 -207 -208 -371 -541 -449 -911 -55 -262 -61
-341 -61 -757 0 -212 3 -389 6 -393 4 -3 64 53 135 126 273 279 531 453 1224
830 254 138 269 148 350 229 168 168 246 365 305 765 37 256 72 317 224 389
63 29 72 31 186 31 108 -1 126 -3 176 -27 79 -36 131 -87 188 -182 26 -44 106
-173 178 -286 738 -1169 1233 -2198 1538 -3200 126 -415 382 -1524 499 -2160
47 -251 44 -240 62 -240 27 0 72 29 99 64 l26 34 -46 264 c-265 1512 -541
2499 -942 3373 -82 180 -238 481 -291 565 -23 36 -56 94 -74 130 -31 62 -33
71 -33 175 0 94 4 122 28 191 32 94 95 209 171 308 l54 72 88 -13 c108 -17
307 -11 414 11 230 50 455 164 690 353 185 148 449 435 697 758 51 66 146 190
211 275 l119 155 -30 7 c-153 33 -693 35 -897 4 -490 -76 -851 -267 -1079
-569 -38 -51 -81 -103 -96 -117 -48 -44 -115 -137 -156 -217 -58 -113 -102
-262 -159 -538 -27 -133 -62 -283 -76 -331 -26 -92 -72 -204 -83 -204 -6 1
-41 58 -521 855 -389 645 -1292 2159 -1315 2204 -111 218 -105 480 16 724 162
325 538 661 982 877 50 25 73 41 65 46 -27 17 -330 7 -450 -15 -101 -18 -488
-110 -530 -126 -13 -5 -16 19 -21 177 -16 491 -150 944 -470 1593 -159 321
-295 569 -432 785 -151 238 -191 295 -266 369 -57 57 -157 135 -147 115 2 -5
18 -38 36 -74 49 -101 66 -180 66 -305 -1 -122 -16 -196 -70 -335 -92 -241
-87 -455 22 -875 62 -239 92 -368 99 -430 6 -48 4 -56 -35 -121 -185 -302
-330 -663 -389 -974 -48 -253 -50 -541 -5 -740 11 -52 -15 -3 -59 110 -81 206
-156 500 -212 825 -75 445 -139 838 -146 900 -16 157 26 339 122 526 28 54
125 210 215 346 265 397 334 563 334 797 l0 112 -55 109 c-60 122 -114 198
-208 294 -173 177 -357 268 -562 277 -96 5 -103 4 -182 -29z m396 -498 c264
-67 411 -234 372 -421 -40 -186 -129 -386 -310 -693 -124 -210 -206 -374 -241
-480 -13 -38 -29 -89 -37 -113 -18 -52 -94 -137 -165 -184 -29 -19 -105 -69
-170 -111 -153 -101 -213 -179 -220 -287 l-3 -44 105 -38 c140 -50 330 -144
437 -215 48 -32 126 -95 173 -141 l85 -83 -104 51 c-499 246 -1085 295 -1636
138 -281 -80 -579 -226 -802 -394 l-73 -54 0 66 c0 89 34 248 75 356 50 128
109 224 185 299 l66 65 -22 55 c-53 131 -75 343 -55 529 10 96 50 329 58 339
15 20 41 -146 53 -338 11 -193 27 -276 65 -351 59 -116 132 -165 300 -200 84
-18 157 -23 460 -30 198 -5 400 -14 449 -20 49 -6 90 -9 91 -8 1 2 -1 104 -6
228 -7 197 -19 324 -33 338 -3 2 -32 -12 -65 -32 -157 -96 -316 -144 -496
-153 -252 -11 -443 74 -560 250 -31 46 -88 186 -80 195 1 1 29 -23 62 -55 121
-116 250 -172 418 -180 318 -16 662 186 863 506 47 76 112 222 112 254 0 16
-2 16 -31 2 -51 -27 -104 -88 -197 -227 -88 -131 -161 -212 -218 -241 -94 -48
-378 -72 -513 -43 -107 23 -192 66 -256 130 -65 64 -71 84 -17 57 94 -48 181
-66 322 -66 113 0 147 4 210 23 115 37 203 86 277 156 129 121 181 254 170
427 -3 49 -10 96 -16 106 -9 16 -10 15 -11 -8 0 -53 -51 -206 -102 -309 -44
-87 -66 -119 -133 -186 -57 -57 -99 -89 -145 -111 -123 -59 -122 -53 21 93
148 152 191 220 208 324 8 47 5 120 -4 120 -2 0 -24 -9 -49 -20 -74 -31 -153
-86 -296 -205 -74 -61 -158 -128 -186 -148 -62 -45 -170 -96 -217 -104 -33 -5
-37 -3 -43 22 -4 14 -4 57 -2 94 9 119 98 263 234 375 66 54 161 112 170 103
10 -10 -39 -93 -95 -160 -119 -145 -133 -163 -156 -209 -14 -26 -25 -50 -25
-53 0 -11 25 -4 83 26 72 36 99 56 247 180 206 173 291 215 421 207 81 -4 87
6 36 57 -36 36 -47 39 -192 53 l-90 8 40 19 c22 10 69 20 105 22 175 13 331
-134 347 -326 l6 -72 41 7 c156 25 257 186 243 385 -7 108 -36 171 -90 195
-65 29 -213 25 -346 -10 -57 -15 -105 -25 -108 -23 -2 3 13 19 34 36 83 69
249 102 409 82 136 -16 157 -27 194 -101 91 -181 94 -414 8 -658 -43 -122
-143 -315 -241 -464 -46 -70 -78 -124 -73 -121 87 50 329 233 450 338 275 241
443 529 463 792 8 104 -10 155 -73 213 -61 56 -120 80 -313 129 -90 23 -169
45 -175 49 -19 12 65 20 158 15 50 -3 124 -13 165 -24z"/>
</g>
</svg>
