<?xml version="1.0" standalone="no"?>
<!DOCTYPE svg PUBLIC "-//W3C//DTD SVG 20010904//EN"
 "http://www.w3.org/TR/2001/REC-SVG-20010904/DTD/svg10.dtd">
<svg version="1.0" xmlns="http://www.w3.org/2000/svg"
 width="1208.000000pt" height="1280.000000pt" viewBox="0 0 1208.000000 1280.000000"
 preserveAspectRatio="xMidYMid meet">
<metadata>
Created by potrace 1.15, written by Peter Selinger 2001-2017
</metadata>
<g transform="translate(0.000000,1280.000000) scale(0.100000,-0.100000)"
fill="#000000" stroke="none">
<path d="M6036 12519 c-20 -58 -954 -3088 -1237 -4011 l-73 -238 -2123 0
c-1168 0 -2123 -3 -2122 -7 0 -5 23 -25 50 -46 28 -21 571 -438 1207 -926 636
-488 1380 -1057 1652 -1265 272 -208 501 -384 508 -390 10 -9 -123 -450 -643
-2140 -360 -1171 -654 -2130 -652 -2132 1 -1 36 23 77 54 99 74 2006 1534
2763 2115 l598 459 37 -28 c20 -15 237 -181 482 -369 363 -278 2650 -2030
2864 -2193 l59 -46 -7 30 c-4 16 -297 973 -652 2127 -355 1154 -643 2104 -641
2112 3 7 140 115 304 241 224 171 2139 1640 3036 2328 42 32 77 63 77 68 0 4
-954 8 -2120 8 l-2119 0 -45 143 c-25 78 -210 678 -411 1332 -606 1969 -857
2780 -861 2784 -2 2 -6 -2 -8 -10z"/>
</g>
</svg>
