<?xml version="1.0" encoding="UTF-8"?>
<svg width="740px" height="732px" viewBox="0 0 740 732" version="1.1" xmlns="http://www.w3.org/2000/svg" xmlns:xlink="http://www.w3.org/1999/xlink">
    <title>path3498</title>
    <g id="Page-1" stroke="none" stroke-width="1" fill="none" fill-rule="evenodd">
        <g id="star2" fill="#000000" fill-rule="nonzero">
            <path d="M740.002875,239.843891 L512.45382,284.334891 C493.690952,252.786794 487.902469,246.764802 455.566611,225.013557 L468.441125,0.0419958141 L370.235719,210.18324 C337.631157,210.25956 331.272492,211.257297 299.126591,225.01424 L85.7993152,91.5406878 L242.239304,284.334941 C222.716453,314.341488 219.902823,319.127841 213.795622,358.486609 L0.468423455,462.298778 L242.239304,432.638111 C262.299564,466.702949 265.951925,469.947584 299.126513,491.959445 L251.221487,731.761407 L370.235642,521.620179 C412.252469,514.339567 419.987118,511.19385 455.566533,491.959512 L654.721888,637.746107 L512.453774,432.638194 C531.86526,401.449631 534.410186,395.068104 540.897456,358.486526 L740.002875,239.843891 Z" id="path3498"></path>
        </g>
    </g>
</svg>